<?xml version="1.0" standalone="no"?>
<!DOCTYPE svg PUBLIC "-//W3C//DTD SVG 20010904//EN"
 "http://www.w3.org/TR/2001/REC-SVG-20010904/DTD/svg10.dtd">
<svg version="1.0" xmlns="http://www.w3.org/2000/svg"
 width="25.000000pt" height="25.000000pt" viewBox="0 0 25.000000 25.000000"
 preserveAspectRatio="xMidYMid meet">

<g transform="translate(0.000000,25.000000) scale(0.100000,-0.100000)"
fill="#000000" stroke="none">
<path d="M160 243 c0 -7 -7 -13 -15 -13 -8 0 -15 -4 -15 -10 0 -5 -8 -10 -17
-10 -13 0 -14 -3 -5 -12 9 -9 15 -9 24 0 7 7 21 12 33 12 40 0 61 -50 33 -78
-9 -9 -9 -15 0 -24 9 -9 12 -8 12 5 0 9 5 17 10 17 6 0 10 7 10 15 0 8 6 15
13 15 8 0 8 3 -2 9 -8 5 -11 16 -8 25 4 10 1 16 -8 16 -8 0 -15 7 -15 15 0 9
-6 12 -16 8 -9 -3 -20 0 -25 8 -6 10 -9 10 -9 2z"/>
<path d="M58 157 c-24 -13 -38 -28 -39 -41 -4 -72 25 -101 97 -97 21 1 73 81
52 81 -6 0 -8 9 -5 20 3 13 0 20 -9 20 -8 0 -14 7 -14 15 0 9 -6 12 -16 8 -9
-3 -19 -2 -23 4 -3 6 -21 2 -43 -10z m81 -45 c14 -27 -9 -66 -40 -70 -57 -7
-80 70 -30 95 28 13 55 4 70 -25z"/>
<path d="M80 90 c0 -5 5 -10 10 -10 6 0 10 5 10 10 0 6 -4 10 -10 10 -5 0 -10
-4 -10 -10z"/>
</g>
</svg>
